<?xml version="1.0"?>
<svg xmlns="http://www.w3.org/2000/svg" xmlns:xlink="http://www.w3.org/1999/xlink" version="1.1" viewBox="0 0 252 252" width="30px" height="30px"><g transform="translate(2.52,2.52) scale(0.98,0.98)"><g fill="none" fill-rule="nonzero" stroke="none" stroke-width="none" stroke-linecap="butt" stroke-linejoin="none" stroke-miterlimit="10" stroke-dasharray="" stroke-dashoffset="0" font-family="none" font-weight="none" font-size="none" text-anchor="none" style="mix-blend-mode: normal"><g fill="#ffffff" stroke="#000000" stroke-width="5" stroke-linejoin="round"><path d="M64.73906,36.06094l61.26094,61.26094l61.26094,-61.26094c3.276,-3.2844 8.59372,-3.2844 11.87812,0l16.8,16.8c3.2844,3.276 3.2844,8.60212 0,11.87812l-61.26094,61.26094l61.26094,61.26094c3.2844,3.276 3.2844,8.59372 0,11.87812l-16.8,16.8c-3.276,3.2844 -8.60212,3.2844 -11.87812,0l-61.26094,-61.26094l-61.26094,61.26094c-3.276,3.2844 -8.59372,3.2844 -11.87812,0l-16.8,-16.8c-3.2844,-3.276 -3.2844,-8.59372 0,-11.87812l61.26094,-61.26094l-61.26094,-61.26094c-3.2844,-3.276 -3.2844,-8.59372 0,-11.87812l16.8,-16.8c1.638,-1.6422 3.78971,-2.46094 5.93906,-2.46094c2.14935,0 4.29686,0.81874 5.93906,2.46094z"/></g><path d="M0,252v-252h252v252z" fill="none" stroke="none" stroke-width="1" stroke-linejoin="miter"/><g fill="#ffffff" stroke="none" stroke-width="1" stroke-linejoin="miter"><path d="M58.8,33.6c-2.14935,0 -4.30106,0.81874 -5.93906,2.46094l-16.8,16.8c-3.2844,3.2844 -3.2844,8.60213 0,11.87812l61.26094,61.26094l-61.26094,61.26094c-3.2844,3.2844 -3.2844,8.60212 0,11.87812l16.8,16.8c3.2844,3.2844 8.60213,3.2844 11.87812,0l61.26094,-61.26094l61.26094,61.26094c3.276,3.2844 8.60212,3.2844 11.87812,0l16.8,-16.8c3.2844,-3.2844 3.2844,-8.60212 0,-11.87812l-61.26094,-61.26094l61.26094,-61.26094c3.2844,-3.276 3.2844,-8.60212 0,-11.87812l-16.8,-16.8c-3.2844,-3.2844 -8.60212,-3.2844 -11.87812,0l-61.26094,61.26094l-61.26094,-61.26094c-1.6422,-1.6422 -3.78971,-2.46094 -5.93906,-2.46094z"/></g><path d="" fill="none" stroke="none" stroke-width="1" stroke-linejoin="miter"/><path d="" fill="none" stroke="none" stroke-width="1" stroke-linejoin="miter"/></g></g></svg>
